:SAMPLES-PER-SECOND 30
:FULLY-SPECIFIED
:DEGREES
251
root  13.19557851 40.11577696 -3.20275562 -7.685520172 -49.04940033 -4.865170002
lowerback  9.897100449 3.015209913 -4.693429947
upperback  3.607019901 3.3245399 -4.331870079
thorax  -1.792060018 1.602900028 -2.237449884
lowerneck  4.909019947 8.505550385 -2.855989933
upperneck  19.72680092 9.730620384 10.04290009
head  4.433710098 4.955550194 3.753269911
lclavicle  0 -9.442270133e-015 7.951389973e-016
lhumerus  7.802320004 -14.51720047 67.26889801
lradius  2.796808659e-031 -2.155621804e-031 142.3769989
lwrist  -1.059337512e-030 -1.765562519e-031 4.600689888
lhand  -1.496451383e-031 -27.76390076 20.11240005
lfingers  90 7.125020027 -90
lthumb  89.89689403 5.08795885 91.16245106
rclavicle  0 -9.442270133e-015 7.951389973e-016
rhumerus  -8.204979897 11.96350002 -70.17369843
rradius  -2.630067214e-031 2.356181335e-031 138.1439972
rwrist  1.059337512e-030 -0 -0.5576779842
rhand  -7.920061211e-032 -33.2840004 9.303460121
rfingers  -90 -7.125020027 -90
rthumb  -92.93752616 -24.25625642 -97.11982154
rfemur  -12.30910015 8.130809784 8.828100204
rtibia  -0 0 70.06539917
rfoot  -5.526066094e-032 3.212379932 -0.8161349893
rtoes  5.373923086 19.29304026 -105.8922705
lfemur  -18.69499969 -5.420919895 -2.644629955
ltibia  -0 0 48.64910126
lfoot  -0 -0.9056929946 8.586779594
ltoes  -4.250644065 -19.5611806 -102.515957
252
root  13.23411146 39.90822139 -3.219288728 -7.520040035 -49.64120102 -5.141359806
lowerback  9.853369713 2.890630007 -4.21600008
upperback  3.609910011 3.222739935 -4.051829815
thorax  -1.756989956 1.556249976 -2.196630001
lowerneck  4.634910107 8.415019989 -2.800849915
upperneck  19.66900063 9.640600204 9.870499611
head  4.479700089 4.913269997 3.702769995
lclavicle  0 -9.442270133e-015 7.951389973e-016
lhumerus  6.686989784 -14.90100002 68.45800018
lradius  2.806225354e-031 -2.143348618e-031 142.628006
lwrist  -7.062250077e-031 -0 4.457389832
lhand  -1.496451383e-031 -27.76390076 20.11240005
lfingers  90 7.125020027 -90
lthumb  89.89689403 5.08795885 91.16245106
rclavicle  0 -9.442270133e-015 7.951389973e-016
rhumerus  -8.261300087 13.5298996 -70.28299713
rradius  -2.636390953e-031 2.3491034e-031 138.2980042
rwrist  7.062250077e-031 -7.062250077e-031 -0.03064220026
rhand  -7.920061211e-032 -33.2840004 9.303460121
rfingers  -90 -7.125020027 -90
rthumb  -92.93752616 -24.25625642 -97.11982154
rfemur  -11.12909985 7.252460003 9.569399834
rtibia  -0 0 70.99819946
rfoot  -4.421886013e-032 3.44265008 -1.027999997
rtoes  5.373923086 19.29304026 -105.8922705
lfemur  -18.75090027 -5.015130043 -2.518749952
ltibia  -0 0 49.47489929
lfoot  -0 -2.03215003 8.918129921
ltoes  -4.250644065 -19.5611806 -102.515957
253
root  13.24671047 39.68444584 -3.220911101 -7.077169895 -50.4056015 -5.646289825
lowerback  9.604439735 2.860850096 -3.546060085
upperback  3.57227993 3.27718997 -3.771310091
thorax  -1.639940023 1.589269996 -2.271300077
lowerneck  4.479380131 8.29349041 -2.802730083
upperneck  19.48119926 9.507060051 9.761610031
head  4.461669922 4.846330166 3.669349909
lclavicle  0 -9.442270133e-015 7.951389973e-016
lhumerus  5.553790092 -15.39560032 69.729599
lradius  2.813392065e-031 -2.133932784e-031 142.8200073
lwrist  -7.062250077e-031 -1.765562519e-031 4.166220188
lhand  -1.496451383e-031 -27.76390076 20.11240005
lfingers  90 7.125020027 -90
lthumb  89.89689403 5.08795885 91.16245106
rclavicle  0 -9.442270133e-015 7.951389973e-016
rhumerus  -8.63465023 14.95930004 -70.56400299
rradius  -2.640322926e-031 2.344683109e-031 138.3939972
rwrist  3.531125038e-031 -0 0.4894480109
rhand  -7.920061211e-032 -33.2840004 9.303460121
rfingers  -90 -7.125020027 -90
rthumb  -92.93752616 -24.25625642 -97.11982154
rfemur  -9.856619835 6.667910099 10.52280045
rtibia  -0 0 71.13970184
rfoot  -4.425245271e-032 4.102499962 -0.8256909847
rtoes  5.373923086 19.29304026 -105.8922705
lfemur  -18.86770058 -4.569310188 -2.125139952
ltibia  -0 0 50.35400009
lfoot  -0 -3.421269894 8.977689743
ltoes  -4.250644065 -19.5611806 -102.515957
254
root  13.22637843 39.46777704 -3.199710996 -6.759520054 -51.27339935 -5.688720226
lowerback  8.933520317 2.933010101 -3.244309902
upperback  3.500960112 3.451800108 -3.549760103
thorax  -1.339969993 1.679759979 -2.192879915
lowerneck  4.244120121 8.176170349 -2.853709936
upperneck  19.38010025 9.371620178 9.689700127
head  4.478380203 4.779699802 3.661789894
lclavicle  0 -9.442270133e-015 7.951389973e-016
lhumerus  4.287370205 -15.8973999 71.07440186
lradius  2.819339721e-031 -2.126068572e-031 142.9799957
lwrist  0 -3.531125038e-031 3.688970089
lhand  -1.496451383e-031 -27.76390076 20.11240005
lfingers  90 7.125020027 -90
lthumb  89.89689403 5.08795885 91.16245106
rclavicle  0 -9.442270133e-015 7.951389973e-016
rhumerus  -9.220720291 16.34329987 -70.86740112
rradius  -2.640036294e-031 2.345005843e-031 138.3869934
rwrist  7.062250077e-031 -3.531125038e-031 0.9415029883
rhand  -7.920061211e-032 -33.2840004 9.303460121
rfingers  -90 -7.125020027 -90
rthumb  -92.93752616 -24.25625642 -97.11982154
rfemur  -8.568619728 6.308939934 11.10079956
rtibia  -0 0 70.39420319
rfoot  -4.427802218e-032 4.540470123 1.003569961
rtoes  5.373923086 19.29304026 -105.8922705
lfemur  -19.07690048 -3.976429939 -1.999680042
ltibia  -0 0 51.21390152
lfoot  -0 -4.999330044 9.058989525
ltoes  -4.250644065 -19.5611806 -102.515957
255
root  13.21431107 39.24266785 -3.223622315 -6.488510132 -51.90219879 -5.819660187
lowerback  8.694910049 3.003550053 -3.06475997
upperback  3.413569927 3.583050013 -3.273220062
thorax  -1.305029988 1.748070002 -2.008929968
lowerneck  3.911020041 8.023750305 -3.039489985
upperneck  19.26779938 9.181529999 9.718799591
head  4.497620106 4.685919762 3.70953989
lclavicle  0 -9.442270133e-015 7.951389973e-016
lhumerus  2.876699924 -16.59589958 72.43009949
lradius  2.82866332e-031 -2.113647999e-031 143.2319946
lwrist  -1.059337512e-030 -1.765562519e-031 3.480580091
lhand  -1.496451383e-031 -27.76390076 20.11240005
lfingers  90 7.125020027 -90
lthumb  89.89689403 5.08795885 91.16245106
rclavicle  0 -9.442270133e-015 7.951389973e-016
rhumerus  -9.91711998 17.53089905 -71.15779877
rradius  -2.638562548e-031 2.346663955e-031 138.3509979
rwrist  7.062250077e-031 -0 1.307469964
rhand  -7.920061211e-032 -33.2840004 9.303460121
rfingers  -90 -7.125020027 -90
rthumb  -92.93752616 -24.25625642 -97.11982154
rfemur  -6.851769924 5.973370075 11.86200047
rtibia  -0 0 68.81900024
rfoot  -4.428154492e-032 4.597509861 2.78008008
rtoes  5.373923086 19.29304026 -105.8922705
lfemur  -19.31819916 -3.535809994 -1.713960052
ltibia  -0 0 52.08929825
lfoot  -0 -6.459149837 8.904950142
ltoes  -4.250644065 -19.5611806 -102.515957
256
root  13.1844438 39.0315559 -3.242022221 -5.826159954 -52.78900146 -6.260910034
lowerback  8.205189705 3.143939972 -2.648600101
upperback  3.321700096 3.839770079 -2.972630024
thorax  -1.121899962 1.881049991 -1.928349972
lowerneck  3.474420071 7.870739937 -3.362489939
upperneck  19.15410042 8.985010147 9.842949867
head  4.521590233 4.588069916 3.812119961
lclavicle  0 -9.442270133e-015 7.951389973e-016
lhumerus  1.452819943 -17.13330078 73.6765976
lradius  2.839764861e-031 -2.098709024e-031 143.5339966
lwrist  -7.062250077e-031 -1.765562519e-031 3.659169912
lhand  -1.496451383e-031 -27.76390076 20.11240005
lfingers  90 7.125020027 -90
lthumb  89.89689403 5.08795885 91.16245106
rclavicle  0 -9.442270133e-015 7.951389973e-016
rhumerus  -10.53250027 18.49799919 -71.58820343
rradius  -2.636390953e-031 2.3491034e-031 138.2980042
rwrist  1.059337512e-030 -0 1.710500002
rhand  -7.920061211e-032 -33.2840004 9.303460121
rfingers  -90 -7.125020027 -90
rthumb  -92.93752616 -24.25625642 -97.11982154
rfemur  -5.093490124 6.015639782 12.95590019
rtibia  -0 0 66.52890015
rfoot  -4.424430971e-032 3.952749968 4.009490013
rtoes  5.373923086 19.29304026 -105.8922705
lfemur  -19.63260078 -2.9317801 -1.129690051
ltibia  -0 0 53.00719833
lfoot  -0 -7.83261013 8.603010178
ltoes  -4.250644065 -19.5611806 -102.515957
257
root  13.16775525 38.7997785 -3.289133357 -5.084290028 -53.50939941 -6.663380146
lowerback  7.820290089 3.245310068 -2.244430065
upperback  3.193239927 4.030169964 -2.746249914
thorax  -1.029320002 1.981359959 -1.917279959
lowerneck  2.981460094 7.736989975 -3.730859995
upperneck  19.03039932 8.811599731 10.03759956
head  4.545060158 4.504179955 3.945539951
lclavicle  0 -9.442270133e-015 7.951389973e-016
lhumerus  0.002716500079 -17.01600075 74.82089996
lradius  2.842619428e-031 -2.094841002e-031 143.6119995
lwrist  -7.062250077e-031 -1.765562519e-031 3.092619896
lhand  -1.496451383e-031 -27.76390076 20.11240005
lfingers  90 7.125020027 -90
lthumb  89.89689403 5.08795885 91.16245106
rclavicle  0 -9.442270133e-015 7.951389973e-016
rhumerus  -11.20489979 19.06839943 -72.20439911
rradius  -2.634914006e-031 2.350759923e-031 138.2619934
rwrist  1.059337512e-030 -0 1.928650022
rhand  -7.920061211e-032 -33.2840004 9.303460121
rfingers  -90 -7.125020027 -90
rthumb  -92.93752616 -24.25625642 -97.11982154
rfemur  -3.275110006 6.032030106 14.03339958
rtibia  -0 0 64.01110077
rfoot  -4.414145153e-032 -0.5960509777 2.050220013
rtoes  5.373923086 19.29304026 -105.8922705
lfemur  -20.27619934 -2.250910044 -0.5143600106
ltibia  -0 0 54.06380081
lfoot  -0 -8.731960297 8.204999924
ltoes  -4.250644065 -19.5611806 -102.515957
258
root  13.14891154 38.53911152 -3.322489055 -4.658679962 -54.4754982 -6.681600094
lowerback  7.444620132 3.472860098 -1.891499996
upperback  3.064059973 4.374479771 -2.712739944
thorax  -0.9263859987 2.157949924 -2.087739944
lowerneck  2.484539986 7.564099789 -3.83581996
upperneck  18.89340019 8.606229782 10.06190014
head  4.592050076 4.412680149 3.984469891
lclavicle  0 -9.442270133e-015 7.951389973e-016
lhumerus  -1.611780047 -17.31040001 75.86540222
lradius  2.85245969e-031 -2.081422051e-031 143.8820038
lwrist  0 -0 2.93204999
lhand  -1.496451383e-031 -27.76390076 20.11240005
lfingers  90 7.125020027 -90
lthumb  89.89689403 5.08795885 91.16245106
rclavicle  0 -9.442270133e-015 7.951389973e-016
rhumerus  -12.10879993 19.32139969 -73.10109711
rradius  -2.630683946e-031 2.355492733e-031 138.1589966
rwrist  3.531125038e-031 -3.531125038e-031 2.194950104
rhand  -7.920061211e-032 -33.2840004 9.303460121
rfingers  -90 -7.125020027 -90
rthumb  -92.93752616 -24.25625642 -97.11982154
rfemur  -1.467309952 6.26760006 14.70240021
rtibia  -0 0 61.75279999
rfoot  -4.455769164e-032 -7.860159874 -0.3025330007
rtoes  5.373923086 19.29304026 -105.8922705
lfemur  -20.76589966 -1.615180016 -0.1244100034
ltibia  -0 0 55.09059906
lfoot  -0 -9.439350128 7.886479855
ltoes  -4.250644065 -19.5611806 -102.515957
259
root  13.15211048 38.26311066 -3.394955537 -4.064949989 -55.32139969 -6.69919014
lowerback  7.207960129 3.661089897 -1.679990053
upperback  2.843869925 4.647140026 -2.673609972
thorax  -1.003679991 2.297559977 -2.179029942
lowerneck  1.875 7.395540237 -3.957119942
upperneck  18.77799988 8.417169571 10.0447998
head  4.665579796 4.328780174 4.018670082
lclavicle  0 -9.442270133e-015 7.951389973e-016
lhumerus  -3.282480001 -17.46170044 76.7798996
lradius  2.866093334e-031 -2.062608309e-031 144.2590027
lwrist  -3.531125038e-031 -3.531125038e-031 3.139719963
lhand  -1.496451383e-031 -27.76390076 20.11240005
lfingers  90 7.125020027 -90
lthumb  89.89689403 5.08795885 91.16245106
rclavicle  0 -9.442270133e-015 7.951389973e-016
rhumerus  -12.87380028 19.46430016 -73.93969727
rradius  -2.622033317e-031 2.365118459e-031 137.9490051
rwrist  7.062250077e-031 -3.531125038e-031 2.734319925
rhand  -7.920061211e-032 -33.2840004 9.303460121
rfingers  -90 -7.125020027 -90
rthumb  -92.93752616 -24.25625642 -97.11982154
rfemur  0.2804270089 5.980989933 15.19369984
rtibia  -0 0 60.07509995
rfoot  -4.539985429e-032 -13.53450012 -3.196079969
rtoes  5.373923086 19.29304026 -105.8922705
lfemur  -21.70219994 -1.001070023 0.3891719878
ltibia  -0 0 56.28490067
lfoot  8.963984259e-032 -9.999580383 7.143149853
ltoes  -4.250644065 -19.5611806 -102.515957
